<?xml version="1.0" encoding="UTF-8" standalone="no"?>
<svg xmlns="http://www.w3.org/2000/svg" contentScriptType="application/ecmascript" contentStyleType="text/css"
     height="259px" preserveAspectRatio="none" style="width:309px;height:259px;background:#FFFFFF;" version="1.1"
     viewBox="0 0 309 259" width="309px" zoomAndPan="magnify">
    <defs>
        <filter height="300%" id="f1mgw2kfi28bwm" width="300%" x="-1" y="-1">
            <feGaussianBlur result="blurOut" stdDeviation="2.0"/>
            <feColorMatrix in="blurOut" result="blurOut2" type="matrix"
                           values="0 0 0 0 0 0 0 0 0 0 0 0 0 0 0 0 0 0 .4 0"/>
            <feOffset dx="4.0" dy="4.0" in="blurOut2" result="blurOut3"/>
            <feBlend in="SourceGraphic" in2="blurOut3" mode="normal"/>
        </filter>
    </defs>
    <g><!--MD5=[cdc1255cd7ce410e071b877db621e6bf]
cluster twisk.designPattern-->
        <polygon fill="#FFFFFF" filter="url(#f1mgw2kfi28bwm)"
                 points="16,6,186,6,193,28.2969,292,28.2969,292,252,16,252,16,6"
                 style="stroke:#000000;stroke-width:1.5;"/>
        <line style="stroke:#000000;stroke-width:1.5;" x1="16" x2="193" y1="28.2969" y2="28.2969"/>
        <text fill="#000000" font-family="sans-serif" font-size="14" font-weight="bold" lengthAdjust="spacing"
              textLength="164" x="20" y="20.9951">twisk.designPattern
        </text><!--MD5=[a480427e2b0495212a8cd6706556f868]
class twisk.designPattern.Observateur-->
        <rect codeLine="1" fill="#FEFECE" filter="url(#f1mgw2kfi28bwm)" height="60.8047"
              id="twisk.designPattern.Observateur" style="stroke:#A80036;stroke-width:1.5;" width="106" x="101"
              y="175"/>
        <ellipse cx="116" cy="191" fill="#B4A7E5" rx="11" ry="11" style="stroke:#A80036;stroke-width:1.0;"/>
        <path d="M116.9531,187.7813 L118.6719,187.7813 C119.0625,187.7813 119.25,187.75 119.375,187.6719 C119.6406,187.5156 119.7813,187.2344 119.7813,186.9375 C119.7813,186.6719 119.6719,186.4063 119.4375,186.2344 C119.2656,186.125 119.125,186.0938 118.6719,186.0938 L113.5313,186.0938 C113.0938,186.0938 112.9688,186.1094 112.8125,186.2031 C112.5625,186.3594 112.4063,186.6563 112.4063,186.9375 C112.4063,187.2188 112.5469,187.4688 112.7656,187.6406 C112.9219,187.75 113.1094,187.7813 113.5313,187.7813 L115.25,187.7813 L115.25,194.2969 L113.5313,194.2969 C113.0938,194.2969 112.9688,194.3125 112.8125,194.4219 C112.5625,194.5781 112.4063,194.8594 112.4063,195.1563 C112.4063,195.4063 112.5469,195.6719 112.7656,195.8281 C112.9219,195.9531 113.125,196 113.5313,196 L118.6719,196 C119.4219,196 119.7813,195.7188 119.7813,195.1563 C119.7813,194.875 119.6719,194.625 119.4375,194.4531 C119.2656,194.3281 119.125,194.2969 118.6719,194.2969 L116.9531,194.2969 L116.9531,187.7813 Z "
              fill="#000000"/>
        <text fill="#000000" font-family="sans-serif" font-size="12" font-style="italic" lengthAdjust="spacing"
              textLength="74" x="130" y="195.1543">Observateur
        </text>
        <line style="stroke:#A80036;stroke-width:1.5;" x1="102" x2="206" y1="207" y2="207"/>
        <line style="stroke:#A80036;stroke-width:1.5;" x1="102" x2="206" y1="215" y2="215"/>
        <polygon fill="#4177AF" points="112,222,108,228,116,228" style="stroke:#1963A0;stroke-width:1.0;"/>
        <text fill="#000000" font-family="sans-serif" font-size="11" lengthAdjust="spacing" textLength="69" x="121"
              y="229.2104">void reagir()
        </text><!--MD5=[1eec1bbfa71b989c3f9e65ca1c9de324]
class twisk.designPattern.SujetObserve-->
        <rect codeLine="4" fill="#FEFECE" filter="url(#f1mgw2kfi28bwm)" height="73.6094"
              id="twisk.designPattern.SujetObserve" style="stroke:#A80036;stroke-width:1.5;" width="244" x="32" y="41"/>
        <ellipse cx="108.25" cy="57" fill="#ADD1B2" rx="11" ry="11" style="stroke:#A80036;stroke-width:1.0;"/>
        <path d="M110.5938,52.6719 C109.6563,52.2344 109.0625,52.0938 108.1875,52.0938 C105.5625,52.0938 103.5625,54.1719 103.5625,56.8906 L103.5625,58.0156 C103.5625,60.5938 105.6719,62.4844 108.5625,62.4844 C109.7813,62.4844 110.9375,62.1875 111.6875,61.6406 C112.2656,61.2344 112.5938,60.7813 112.5938,60.3906 C112.5938,59.9375 112.2031,59.5469 111.7344,59.5469 C111.5156,59.5469 111.3125,59.625 111.125,59.8125 C110.6719,60.2969 110.6719,60.2969 110.4844,60.3906 C110.0625,60.6563 109.375,60.7813 108.6094,60.7813 C106.5625,60.7813 105.2656,59.6875 105.2656,57.9844 L105.2656,56.8906 C105.2656,55.1094 106.5156,53.7969 108.25,53.7969 C108.8281,53.7969 109.4375,53.9531 109.9063,54.2031 C110.3906,54.4844 110.5625,54.7031 110.6563,55.1094 C110.7188,55.5156 110.75,55.6406 110.8906,55.7656 C111.0313,55.9063 111.2656,56.0156 111.4844,56.0156 C111.75,56.0156 112.0156,55.875 112.1875,55.6563 C112.2969,55.5 112.3281,55.3125 112.3281,54.8906 L112.3281,53.4688 C112.3281,53.0313 112.3125,52.9063 112.2188,52.75 C112.0625,52.4844 111.7813,52.3438 111.4844,52.3438 C111.1875,52.3438 110.9844,52.4375 110.7656,52.75 L110.5938,52.6719 Z "
              fill="#000000"/>
        <text fill="#000000" font-family="sans-serif" font-size="12" lengthAdjust="spacing" textLength="83" x="128.75"
              y="61.1543">SujetObserve
        </text>
        <line style="stroke:#A80036;stroke-width:1.5;" x1="33" x2="275" y1="73" y2="73"/>
        <line style="stroke:#A80036;stroke-width:1.5;" x1="33" x2="275" y1="81" y2="81"/>
        <ellipse cx="43" cy="92" fill="#84BE84" rx="3" ry="3" style="stroke:#038048;stroke-width:1.0;"/>
        <text fill="#000000" font-family="sans-serif" font-size="11" lengthAdjust="spacing" textLength="218" x="52"
              y="95.2104">void ajouterObservateur(Observateur)
        </text>
        <ellipse cx="43" cy="104.8047" fill="#84BE84" rx="3" ry="3" style="stroke:#038048;stroke-width:1.0;"/>
        <text fill="#000000" font-family="sans-serif" font-size="11" lengthAdjust="spacing" textLength="153" x="52"
              y="108.0151">void notifierObservateurs()
        </text><!--MD5=[445ee5651fc02a60c2b46a25c30bf2df]
link twisk.designPattern.SujetObserve to twisk.designPattern.Observateur-->
        <path codeLine="8" d="M154,115.3 C154,134.122 154,156.83 154,174.624 " fill="none"
              id="twisk.designPattern.SujetObserve-twisk.designPattern.Observateur"
              style="stroke:#A80036;stroke-width:1.0;"/>
        <text fill="#000000" font-family="sans-serif" font-size="13" lengthAdjust="spacing" textLength="8" x="145.3625"
              y="134.5486">1
        </text>
        <text fill="#000000" font-family="sans-serif" font-size="13" lengthAdjust="spacing" textLength="7" x="146.2781"
              y="163.8097">*
        </text><!--MD5=[2847dfbaa5853847e6b40a9e03edd9e1]
@startuml
interface twisk.designPattern.Observateur {
~ void reagir()
}
class twisk.designPattern.SujetObserve {
+ void ajouterObservateur(Observateur)
+ void notifierObservateurs()
}
twisk.designPattern.SujetObserve "1"- -"*" twisk.designPattern.Observateur
@enduml

PlantUML version 1.2021.7(Sun May 23 12:40:07 UTC 2021)
(GPL source distribution)
Java Runtime: Java(TM) SE Runtime Environment
JVM: Java HotSpot(TM) 64-Bit Server VM
Default Encoding: UTF-8
Language: en
Country: US
-->
    </g>
</svg>