<?xml version="1.0" encoding="UTF-8" standalone="no"?>
<svg xmlns="http://www.w3.org/2000/svg" contentScriptType="application/ecmascript" contentStyleType="text/css"
     height="328px" preserveAspectRatio="none" style="width:2593px;height:328px;background:#FFFFFF;" version="1.1"
     viewBox="0 0 2593 328" width="2593px" zoomAndPan="magnify">
    <defs>
        <filter height="300%" id="f9bkimxmdl17g" width="300%" x="-1" y="-1">
            <feGaussianBlur result="blurOut" stdDeviation="2.0"/>
            <feColorMatrix in="blurOut" result="blurOut2" type="matrix"
                           values="0 0 0 0 0 0 0 0 0 0 0 0 0 0 0 0 0 0 .4 0"/>
            <feOffset dx="4.0" dy="4.0" in="blurOut2" result="blurOut3"/>
            <feBlend in="SourceGraphic" in2="blurOut3" mode="normal"/>
        </filter>
    </defs>
    <g><!--MD5=[959037640dec086bddbdf7eb706070b1]
cluster twisk.exceptions-->
        <polygon fill="#FFFFFF" filter="url(#f9bkimxmdl17g)"
                 points="16,6,159,6,166,28.2969,2576,28.2969,2576,321,16,321,16,6"
                 style="stroke:#000000;stroke-width:1.5;"/>
        <line style="stroke:#000000;stroke-width:1.5;" x1="16" x2="166" y1="28.2969" y2="28.2969"/>
        <text fill="#000000" font-family="sans-serif" font-size="14" font-weight="bold" lengthAdjust="spacing"
              textLength="137" x="20" y="20.9951">twisk.exceptions
        </text><!--MD5=[60e24a87312cf6a2b384f1ad941eb2f0]
class twisk.exceptions.TwiskException-->
        <rect codeLine="1" fill="#FEFECE" filter="url(#f9bkimxmdl17g)" height="48" id="twisk.exceptions.TwiskException"
              style="stroke:#A80036;stroke-width:1.5;" width="125" x="1285.5" y="149"/>
        <ellipse cx="1300.5" cy="165" fill="#A9DCDF" rx="11" ry="11" style="stroke:#A80036;stroke-width:1.0;"/>
        <path d="M1302.5781,166.8125 L1302.9688,167.7969 L1302.5781,167.7969 C1302.125,167.7969 1302.0156,167.8125 1301.8594,167.9219 C1301.6094,168.0781 1301.4531,168.3594 1301.4531,168.6563 C1301.4531,168.9219 1301.5938,169.1719 1301.8125,169.3281 C1301.9531,169.4531 1302.1563,169.5 1302.5781,169.5 L1304.9375,169.5 C1305.2969,169.5 1305.5156,169.4688 1305.6563,169.375 C1305.9063,169.2344 1306.0625,168.9375 1306.0625,168.6563 C1306.0625,168.375 1305.9219,168.125 1305.7031,167.9688 C1305.5313,167.8281 1305.375,167.7969 1304.9063,167.7969 L1301.5156,159.5938 L1297.8438,159.5938 C1297.3906,159.5938 1297.2656,159.6094 1297.1094,159.7031 C1296.8594,159.875 1296.7031,160.1563 1296.7031,160.4375 C1296.7031,160.7188 1296.8438,160.9688 1297.0625,161.1406 C1297.2344,161.25 1297.4063,161.2813 1297.8438,161.2813 L1298.9219,161.2813 L1296.2813,167.7969 C1295.8594,167.7969 1295.7031,167.8125 1295.5469,167.9219 C1295.2969,168.0781 1295.1406,168.3594 1295.1406,168.6563 C1295.1406,169.2188 1295.5156,169.5 1296.2656,169.5 L1298.5313,169.5 C1298.8906,169.5 1299.1094,169.4688 1299.2344,169.375 C1299.5,169.2344 1299.6406,168.9375 1299.6406,168.6563 C1299.6406,168.375 1299.5156,168.125 1299.2969,167.9531 C1299.125,167.8281 1298.9844,167.7969 1298.5313,167.7969 L1298.1406,167.7969 L1298.5313,166.8125 L1302.5781,166.8125 Z M1301.875,165.1094 L1299.2031,165.1094 L1300.5469,161.8438 L1301.875,165.1094 Z "
              fill="#000000"/>
        <text fill="#000000" font-family="sans-serif" font-size="12" font-style="italic" lengthAdjust="spacing"
              textLength="93" x="1314.5" y="169.1543">TwiskException
        </text>
        <line style="stroke:#A80036;stroke-width:1.5;" x1="1286.5" x2="1409.5" y1="181" y2="181"/>
        <line style="stroke:#A80036;stroke-width:1.5;" x1="1286.5" x2="1409.5" y1="189" y2="189"/><!--MD5=[c0f6bd977c7c4c0c09260886854997cc]
class twisk.exceptions.PasUnGuichetException-->
        <rect codeLine="3" fill="#FEFECE" filter="url(#f9bkimxmdl17g)" height="48"
              id="twisk.exceptions.PasUnGuichetException" style="stroke:#A80036;stroke-width:1.5;" width="172" x="32"
              y="257"/>
        <ellipse cx="47" cy="273" fill="#ADD1B2" rx="11" ry="11" style="stroke:#A80036;stroke-width:1.0;"/>
        <path d="M49.3438,268.6719 C48.4063,268.2344 47.8125,268.0938 46.9375,268.0938 C44.3125,268.0938 42.3125,270.1719 42.3125,272.8906 L42.3125,274.0156 C42.3125,276.5938 44.4219,278.4844 47.3125,278.4844 C48.5313,278.4844 49.6875,278.1875 50.4375,277.6406 C51.0156,277.2344 51.3438,276.7813 51.3438,276.3906 C51.3438,275.9375 50.9531,275.5469 50.4844,275.5469 C50.2656,275.5469 50.0625,275.625 49.875,275.8125 C49.4219,276.2969 49.4219,276.2969 49.2344,276.3906 C48.8125,276.6563 48.125,276.7813 47.3594,276.7813 C45.3125,276.7813 44.0156,275.6875 44.0156,273.9844 L44.0156,272.8906 C44.0156,271.1094 45.2656,269.7969 47,269.7969 C47.5781,269.7969 48.1875,269.9531 48.6563,270.2031 C49.1406,270.4844 49.3125,270.7031 49.4063,271.1094 C49.4688,271.5156 49.5,271.6406 49.6406,271.7656 C49.7813,271.9063 50.0156,272.0156 50.2344,272.0156 C50.5,272.0156 50.7656,271.875 50.9375,271.6563 C51.0469,271.5 51.0781,271.3125 51.0781,270.8906 L51.0781,269.4688 C51.0781,269.0313 51.0625,268.9063 50.9688,268.75 C50.8125,268.4844 50.5313,268.3438 50.2344,268.3438 C49.9375,268.3438 49.7344,268.4375 49.5156,268.75 L49.3438,268.6719 Z "
              fill="#000000"/>
        <text fill="#000000" font-family="sans-serif" font-size="12" lengthAdjust="spacing" textLength="140" x="61"
              y="277.1543">PasUnGuichetException
        </text>
        <line style="stroke:#A80036;stroke-width:1.5;" x1="33" x2="203" y1="289" y2="289"/>
        <line style="stroke:#A80036;stroke-width:1.5;" x1="33" x2="203" y1="297" y2="297"/><!--MD5=[c74a5194034faba5db7cff917e929963]
class twisk.exceptions.GuichetToGuichetException-->
        <rect codeLine="5" fill="#FEFECE" filter="url(#f9bkimxmdl17g)" height="48"
              id="twisk.exceptions.GuichetToGuichetException" style="stroke:#A80036;stroke-width:1.5;" width="196"
              x="239" y="257"/>
        <ellipse cx="254" cy="273" fill="#ADD1B2" rx="11" ry="11" style="stroke:#A80036;stroke-width:1.0;"/>
        <path d="M256.3438,268.6719 C255.4063,268.2344 254.8125,268.0938 253.9375,268.0938 C251.3125,268.0938 249.3125,270.1719 249.3125,272.8906 L249.3125,274.0156 C249.3125,276.5938 251.4219,278.4844 254.3125,278.4844 C255.5313,278.4844 256.6875,278.1875 257.4375,277.6406 C258.0156,277.2344 258.3438,276.7813 258.3438,276.3906 C258.3438,275.9375 257.9531,275.5469 257.4844,275.5469 C257.2656,275.5469 257.0625,275.625 256.875,275.8125 C256.4219,276.2969 256.4219,276.2969 256.2344,276.3906 C255.8125,276.6563 255.125,276.7813 254.3594,276.7813 C252.3125,276.7813 251.0156,275.6875 251.0156,273.9844 L251.0156,272.8906 C251.0156,271.1094 252.2656,269.7969 254,269.7969 C254.5781,269.7969 255.1875,269.9531 255.6563,270.2031 C256.1406,270.4844 256.3125,270.7031 256.4063,271.1094 C256.4688,271.5156 256.5,271.6406 256.6406,271.7656 C256.7813,271.9063 257.0156,272.0156 257.2344,272.0156 C257.5,272.0156 257.7656,271.875 257.9375,271.6563 C258.0469,271.5 258.0781,271.3125 258.0781,270.8906 L258.0781,269.4688 C258.0781,269.0313 258.0625,268.9063 257.9688,268.75 C257.8125,268.4844 257.5313,268.3438 257.2344,268.3438 C256.9375,268.3438 256.7344,268.4375 256.5156,268.75 L256.3438,268.6719 Z "
              fill="#000000"/>
        <text fill="#000000" font-family="sans-serif" font-size="12" lengthAdjust="spacing" textLength="164" x="268"
              y="277.1543">GuichetToGuichetException
        </text>
        <line style="stroke:#A80036;stroke-width:1.5;" x1="240" x2="434" y1="289" y2="289"/>
        <line style="stroke:#A80036;stroke-width:1.5;" x1="240" x2="434" y1="297" y2="297"/><!--MD5=[12b36413c0442e32178227d9810923d7]
class twisk.exceptions.ChargementSauvegardeException-->
        <rect codeLine="7" fill="#FEFECE" filter="url(#f9bkimxmdl17g)" height="48"
              id="twisk.exceptions.ChargementSauvegardeException" style="stroke:#A80036;stroke-width:1.5;" width="237"
              x="470.5" y="257"/>
        <ellipse cx="485.5" cy="273" fill="#ADD1B2" rx="11" ry="11" style="stroke:#A80036;stroke-width:1.0;"/>
        <path d="M487.8438,268.6719 C486.9063,268.2344 486.3125,268.0938 485.4375,268.0938 C482.8125,268.0938 480.8125,270.1719 480.8125,272.8906 L480.8125,274.0156 C480.8125,276.5938 482.9219,278.4844 485.8125,278.4844 C487.0313,278.4844 488.1875,278.1875 488.9375,277.6406 C489.5156,277.2344 489.8438,276.7813 489.8438,276.3906 C489.8438,275.9375 489.4531,275.5469 488.9844,275.5469 C488.7656,275.5469 488.5625,275.625 488.375,275.8125 C487.9219,276.2969 487.9219,276.2969 487.7344,276.3906 C487.3125,276.6563 486.625,276.7813 485.8594,276.7813 C483.8125,276.7813 482.5156,275.6875 482.5156,273.9844 L482.5156,272.8906 C482.5156,271.1094 483.7656,269.7969 485.5,269.7969 C486.0781,269.7969 486.6875,269.9531 487.1563,270.2031 C487.6406,270.4844 487.8125,270.7031 487.9063,271.1094 C487.9688,271.5156 488,271.6406 488.1406,271.7656 C488.2813,271.9063 488.5156,272.0156 488.7344,272.0156 C489,272.0156 489.2656,271.875 489.4375,271.6563 C489.5469,271.5 489.5781,271.3125 489.5781,270.8906 L489.5781,269.4688 C489.5781,269.0313 489.5625,268.9063 489.4688,268.75 C489.3125,268.4844 489.0313,268.3438 488.7344,268.3438 C488.4375,268.3438 488.2344,268.4375 488.0156,268.75 L487.8438,268.6719 Z "
              fill="#000000"/>
        <text fill="#000000" font-family="sans-serif" font-size="12" lengthAdjust="spacing" textLength="205" x="499.5"
              y="277.1543">ChargementSauvegardeException
        </text>
        <line style="stroke:#A80036;stroke-width:1.5;" x1="471.5" x2="706.5" y1="289" y2="289"/>
        <line style="stroke:#A80036;stroke-width:1.5;" x1="471.5" x2="706.5" y1="297" y2="297"/><!--MD5=[02bc19b7b09a18b1ac071fc7e6dfdc9e]
class twisk.exceptions.UncorrectSettingsException-->
        <rect codeLine="9" fill="#FEFECE" filter="url(#f9bkimxmdl17g)" height="48"
              id="twisk.exceptions.UncorrectSettingsException" style="stroke:#A80036;stroke-width:1.5;" width="200"
              x="1446" y="149"/>
        <ellipse cx="1461" cy="165" fill="#ADD1B2" rx="11" ry="11" style="stroke:#A80036;stroke-width:1.0;"/>
        <path d="M1463.3438,160.6719 C1462.4063,160.2344 1461.8125,160.0938 1460.9375,160.0938 C1458.3125,160.0938 1456.3125,162.1719 1456.3125,164.8906 L1456.3125,166.0156 C1456.3125,168.5938 1458.4219,170.4844 1461.3125,170.4844 C1462.5313,170.4844 1463.6875,170.1875 1464.4375,169.6406 C1465.0156,169.2344 1465.3438,168.7813 1465.3438,168.3906 C1465.3438,167.9375 1464.9531,167.5469 1464.4844,167.5469 C1464.2656,167.5469 1464.0625,167.625 1463.875,167.8125 C1463.4219,168.2969 1463.4219,168.2969 1463.2344,168.3906 C1462.8125,168.6563 1462.125,168.7813 1461.3594,168.7813 C1459.3125,168.7813 1458.0156,167.6875 1458.0156,165.9844 L1458.0156,164.8906 C1458.0156,163.1094 1459.2656,161.7969 1461,161.7969 C1461.5781,161.7969 1462.1875,161.9531 1462.6563,162.2031 C1463.1406,162.4844 1463.3125,162.7031 1463.4063,163.1094 C1463.4688,163.5156 1463.5,163.6406 1463.6406,163.7656 C1463.7813,163.9063 1464.0156,164.0156 1464.2344,164.0156 C1464.5,164.0156 1464.7656,163.875 1464.9375,163.6563 C1465.0469,163.5 1465.0781,163.3125 1465.0781,162.8906 L1465.0781,161.4688 C1465.0781,161.0313 1465.0625,160.9063 1464.9688,160.75 C1464.8125,160.4844 1464.5313,160.3438 1464.2344,160.3438 C1463.9375,160.3438 1463.7344,160.4375 1463.5156,160.75 L1463.3438,160.6719 Z "
              fill="#000000"/>
        <text fill="#000000" font-family="sans-serif" font-size="12" lengthAdjust="spacing" textLength="168" x="1475"
              y="169.1543">UncorrectSettingsException
        </text>
        <line style="stroke:#A80036;stroke-width:1.5;" x1="1447" x2="1645" y1="181" y2="181"/>
        <line style="stroke:#A80036;stroke-width:1.5;" x1="1447" x2="1645" y1="189" y2="189"/><!--MD5=[41c1235e87667fea35f5ca0fb7cb94ba]
class twisk.exceptions.CreateLoopException-->
        <rect codeLine="11" fill="#FEFECE" filter="url(#f9bkimxmdl17g)" height="48"
              id="twisk.exceptions.CreateLoopException" style="stroke:#A80036;stroke-width:1.5;" width="161" x="742.5"
              y="257"/>
        <ellipse cx="757.5" cy="273" fill="#ADD1B2" rx="11" ry="11" style="stroke:#A80036;stroke-width:1.0;"/>
        <path d="M759.8438,268.6719 C758.9063,268.2344 758.3125,268.0938 757.4375,268.0938 C754.8125,268.0938 752.8125,270.1719 752.8125,272.8906 L752.8125,274.0156 C752.8125,276.5938 754.9219,278.4844 757.8125,278.4844 C759.0313,278.4844 760.1875,278.1875 760.9375,277.6406 C761.5156,277.2344 761.8438,276.7813 761.8438,276.3906 C761.8438,275.9375 761.4531,275.5469 760.9844,275.5469 C760.7656,275.5469 760.5625,275.625 760.375,275.8125 C759.9219,276.2969 759.9219,276.2969 759.7344,276.3906 C759.3125,276.6563 758.625,276.7813 757.8594,276.7813 C755.8125,276.7813 754.5156,275.6875 754.5156,273.9844 L754.5156,272.8906 C754.5156,271.1094 755.7656,269.7969 757.5,269.7969 C758.0781,269.7969 758.6875,269.9531 759.1563,270.2031 C759.6406,270.4844 759.8125,270.7031 759.9063,271.1094 C759.9688,271.5156 760,271.6406 760.1406,271.7656 C760.2813,271.9063 760.5156,272.0156 760.7344,272.0156 C761,272.0156 761.2656,271.875 761.4375,271.6563 C761.5469,271.5 761.5781,271.3125 761.5781,270.8906 L761.5781,269.4688 C761.5781,269.0313 761.5625,268.9063 761.4688,268.75 C761.3125,268.4844 761.0313,268.3438 760.7344,268.3438 C760.4375,268.3438 760.2344,268.4375 760.0156,268.75 L759.8438,268.6719 Z "
              fill="#000000"/>
        <text fill="#000000" font-family="sans-serif" font-size="12" lengthAdjust="spacing" textLength="129" x="771.5"
              y="277.1543">CreateLoopException
        </text>
        <line style="stroke:#A80036;stroke-width:1.5;" x1="743.5" x2="902.5" y1="289" y2="289"/>
        <line style="stroke:#A80036;stroke-width:1.5;" x1="743.5" x2="902.5" y1="297" y2="297"/><!--MD5=[dd5251bed3856202fb231de13f02f98c]
class twisk.exceptions.SameActivityException-->
        <rect codeLine="13" fill="#FEFECE" filter="url(#f9bkimxmdl17g)" height="48"
              id="twisk.exceptions.SameActivityException" style="stroke:#A80036;stroke-width:1.5;" width="168" x="939"
              y="257"/>
        <ellipse cx="954" cy="273" fill="#ADD1B2" rx="11" ry="11" style="stroke:#A80036;stroke-width:1.0;"/>
        <path d="M956.3438,268.6719 C955.4063,268.2344 954.8125,268.0938 953.9375,268.0938 C951.3125,268.0938 949.3125,270.1719 949.3125,272.8906 L949.3125,274.0156 C949.3125,276.5938 951.4219,278.4844 954.3125,278.4844 C955.5313,278.4844 956.6875,278.1875 957.4375,277.6406 C958.0156,277.2344 958.3438,276.7813 958.3438,276.3906 C958.3438,275.9375 957.9531,275.5469 957.4844,275.5469 C957.2656,275.5469 957.0625,275.625 956.875,275.8125 C956.4219,276.2969 956.4219,276.2969 956.2344,276.3906 C955.8125,276.6563 955.125,276.7813 954.3594,276.7813 C952.3125,276.7813 951.0156,275.6875 951.0156,273.9844 L951.0156,272.8906 C951.0156,271.1094 952.2656,269.7969 954,269.7969 C954.5781,269.7969 955.1875,269.9531 955.6563,270.2031 C956.1406,270.4844 956.3125,270.7031 956.4063,271.1094 C956.4688,271.5156 956.5,271.6406 956.6406,271.7656 C956.7813,271.9063 957.0156,272.0156 957.2344,272.0156 C957.5,272.0156 957.7656,271.875 957.9375,271.6563 C958.0469,271.5 958.0781,271.3125 958.0781,270.8906 L958.0781,269.4688 C958.0781,269.0313 958.0625,268.9063 957.9688,268.75 C957.8125,268.4844 957.5313,268.3438 957.2344,268.3438 C956.9375,268.3438 956.7344,268.4375 956.5156,268.75 L956.3438,268.6719 Z "
              fill="#000000"/>
        <text fill="#000000" font-family="sans-serif" font-size="12" lengthAdjust="spacing" textLength="136" x="968"
              y="277.1543">SameActivityException
        </text>
        <line style="stroke:#A80036;stroke-width:1.5;" x1="940" x2="1106" y1="289" y2="289"/>
        <line style="stroke:#A80036;stroke-width:1.5;" x1="940" x2="1106" y1="297" y2="297"/><!--MD5=[cf7b3ab65e904919152f09e12f2ff094]
class twisk.exceptions.WrongDirectionException-->
        <rect codeLine="15" fill="#FEFECE" filter="url(#f9bkimxmdl17g)" height="48"
              id="twisk.exceptions.WrongDirectionException" style="stroke:#A80036;stroke-width:1.5;" width="185"
              x="1142.5" y="257"/>
        <ellipse cx="1157.5" cy="273" fill="#ADD1B2" rx="11" ry="11" style="stroke:#A80036;stroke-width:1.0;"/>
        <path d="M1159.8438,268.6719 C1158.9063,268.2344 1158.3125,268.0938 1157.4375,268.0938 C1154.8125,268.0938 1152.8125,270.1719 1152.8125,272.8906 L1152.8125,274.0156 C1152.8125,276.5938 1154.9219,278.4844 1157.8125,278.4844 C1159.0313,278.4844 1160.1875,278.1875 1160.9375,277.6406 C1161.5156,277.2344 1161.8438,276.7813 1161.8438,276.3906 C1161.8438,275.9375 1161.4531,275.5469 1160.9844,275.5469 C1160.7656,275.5469 1160.5625,275.625 1160.375,275.8125 C1159.9219,276.2969 1159.9219,276.2969 1159.7344,276.3906 C1159.3125,276.6563 1158.625,276.7813 1157.8594,276.7813 C1155.8125,276.7813 1154.5156,275.6875 1154.5156,273.9844 L1154.5156,272.8906 C1154.5156,271.1094 1155.7656,269.7969 1157.5,269.7969 C1158.0781,269.7969 1158.6875,269.9531 1159.1563,270.2031 C1159.6406,270.4844 1159.8125,270.7031 1159.9063,271.1094 C1159.9688,271.5156 1160,271.6406 1160.1406,271.7656 C1160.2813,271.9063 1160.5156,272.0156 1160.7344,272.0156 C1161,272.0156 1161.2656,271.875 1161.4375,271.6563 C1161.5469,271.5 1161.5781,271.3125 1161.5781,270.8906 L1161.5781,269.4688 C1161.5781,269.0313 1161.5625,268.9063 1161.4688,268.75 C1161.3125,268.4844 1161.0313,268.3438 1160.7344,268.3438 C1160.4375,268.3438 1160.2344,268.4375 1160.0156,268.75 L1159.8438,268.6719 Z "
              fill="#000000"/>
        <text fill="#000000" font-family="sans-serif" font-size="12" lengthAdjust="spacing" textLength="153" x="1171.5"
              y="277.1543">WrongDirectionException
        </text>
        <line style="stroke:#A80036;stroke-width:1.5;" x1="1143.5" x2="1326.5" y1="289" y2="289"/>
        <line style="stroke:#A80036;stroke-width:1.5;" x1="1143.5" x2="1326.5" y1="297" y2="297"/><!--MD5=[98ab3a1bb8bda923594cbde5909249a4]
class twisk.exceptions.ArcAlreadyCreateException-->
        <rect codeLine="17" fill="#FEFECE" filter="url(#f9bkimxmdl17g)" height="48"
              id="twisk.exceptions.ArcAlreadyCreateException" style="stroke:#A80036;stroke-width:1.5;" width="197"
              x="1362.5" y="257"/>
        <ellipse cx="1377.5" cy="273" fill="#ADD1B2" rx="11" ry="11" style="stroke:#A80036;stroke-width:1.0;"/>
        <path d="M1379.8438,268.6719 C1378.9063,268.2344 1378.3125,268.0938 1377.4375,268.0938 C1374.8125,268.0938 1372.8125,270.1719 1372.8125,272.8906 L1372.8125,274.0156 C1372.8125,276.5938 1374.9219,278.4844 1377.8125,278.4844 C1379.0313,278.4844 1380.1875,278.1875 1380.9375,277.6406 C1381.5156,277.2344 1381.8438,276.7813 1381.8438,276.3906 C1381.8438,275.9375 1381.4531,275.5469 1380.9844,275.5469 C1380.7656,275.5469 1380.5625,275.625 1380.375,275.8125 C1379.9219,276.2969 1379.9219,276.2969 1379.7344,276.3906 C1379.3125,276.6563 1378.625,276.7813 1377.8594,276.7813 C1375.8125,276.7813 1374.5156,275.6875 1374.5156,273.9844 L1374.5156,272.8906 C1374.5156,271.1094 1375.7656,269.7969 1377.5,269.7969 C1378.0781,269.7969 1378.6875,269.9531 1379.1563,270.2031 C1379.6406,270.4844 1379.8125,270.7031 1379.9063,271.1094 C1379.9688,271.5156 1380,271.6406 1380.1406,271.7656 C1380.2813,271.9063 1380.5156,272.0156 1380.7344,272.0156 C1381,272.0156 1381.2656,271.875 1381.4375,271.6563 C1381.5469,271.5 1381.5781,271.3125 1381.5781,270.8906 L1381.5781,269.4688 C1381.5781,269.0313 1381.5625,268.9063 1381.4688,268.75 C1381.3125,268.4844 1381.0313,268.3438 1380.7344,268.3438 C1380.4375,268.3438 1380.2344,268.4375 1380.0156,268.75 L1379.8438,268.6719 Z "
              fill="#000000"/>
        <text fill="#000000" font-family="sans-serif" font-size="12" lengthAdjust="spacing" textLength="165" x="1391.5"
              y="277.1543">ArcAlreadyCreateException
        </text>
        <line style="stroke:#A80036;stroke-width:1.5;" x1="1363.5" x2="1558.5" y1="289" y2="289"/>
        <line style="stroke:#A80036;stroke-width:1.5;" x1="1363.5" x2="1558.5" y1="297" y2="297"/><!--MD5=[9d3b15e5b482c62b00645cfd1ae90292]
class twisk.exceptions.CreateArcWithEndPdcException-->
        <rect codeLine="19" fill="#FEFECE" filter="url(#f9bkimxmdl17g)" height="48"
              id="twisk.exceptions.CreateArcWithEndPdcException" style="stroke:#A80036;stroke-width:1.5;" width="220"
              x="1595" y="257"/>
        <ellipse cx="1610" cy="273" fill="#ADD1B2" rx="11" ry="11" style="stroke:#A80036;stroke-width:1.0;"/>
        <path d="M1612.3438,268.6719 C1611.4063,268.2344 1610.8125,268.0938 1609.9375,268.0938 C1607.3125,268.0938 1605.3125,270.1719 1605.3125,272.8906 L1605.3125,274.0156 C1605.3125,276.5938 1607.4219,278.4844 1610.3125,278.4844 C1611.5313,278.4844 1612.6875,278.1875 1613.4375,277.6406 C1614.0156,277.2344 1614.3438,276.7813 1614.3438,276.3906 C1614.3438,275.9375 1613.9531,275.5469 1613.4844,275.5469 C1613.2656,275.5469 1613.0625,275.625 1612.875,275.8125 C1612.4219,276.2969 1612.4219,276.2969 1612.2344,276.3906 C1611.8125,276.6563 1611.125,276.7813 1610.3594,276.7813 C1608.3125,276.7813 1607.0156,275.6875 1607.0156,273.9844 L1607.0156,272.8906 C1607.0156,271.1094 1608.2656,269.7969 1610,269.7969 C1610.5781,269.7969 1611.1875,269.9531 1611.6563,270.2031 C1612.1406,270.4844 1612.3125,270.7031 1612.4063,271.1094 C1612.4688,271.5156 1612.5,271.6406 1612.6406,271.7656 C1612.7813,271.9063 1613.0156,272.0156 1613.2344,272.0156 C1613.5,272.0156 1613.7656,271.875 1613.9375,271.6563 C1614.0469,271.5 1614.0781,271.3125 1614.0781,270.8906 L1614.0781,269.4688 C1614.0781,269.0313 1614.0625,268.9063 1613.9688,268.75 C1613.8125,268.4844 1613.5313,268.3438 1613.2344,268.3438 C1612.9375,268.3438 1612.7344,268.4375 1612.5156,268.75 L1612.3438,268.6719 Z "
              fill="#000000"/>
        <text fill="#000000" font-family="sans-serif" font-size="12" lengthAdjust="spacing" textLength="188" x="1624"
              y="277.1543">CreateArcWithEndPdcException
        </text>
        <line style="stroke:#A80036;stroke-width:1.5;" x1="1596" x2="1814" y1="289" y2="289"/>
        <line style="stroke:#A80036;stroke-width:1.5;" x1="1596" x2="1814" y1="297" y2="297"/><!--MD5=[b5debf88a7aab37143047e471d9120dc]
class twisk.exceptions.FichierNullException-->
        <rect codeLine="21" fill="#FEFECE" filter="url(#f9bkimxmdl17g)" height="48"
              id="twisk.exceptions.FichierNullException" style="stroke:#A80036;stroke-width:1.5;" width="152" x="1850"
              y="257"/>
        <ellipse cx="1865" cy="273" fill="#ADD1B2" rx="11" ry="11" style="stroke:#A80036;stroke-width:1.0;"/>
        <path d="M1867.3438,268.6719 C1866.4063,268.2344 1865.8125,268.0938 1864.9375,268.0938 C1862.3125,268.0938 1860.3125,270.1719 1860.3125,272.8906 L1860.3125,274.0156 C1860.3125,276.5938 1862.4219,278.4844 1865.3125,278.4844 C1866.5313,278.4844 1867.6875,278.1875 1868.4375,277.6406 C1869.0156,277.2344 1869.3438,276.7813 1869.3438,276.3906 C1869.3438,275.9375 1868.9531,275.5469 1868.4844,275.5469 C1868.2656,275.5469 1868.0625,275.625 1867.875,275.8125 C1867.4219,276.2969 1867.4219,276.2969 1867.2344,276.3906 C1866.8125,276.6563 1866.125,276.7813 1865.3594,276.7813 C1863.3125,276.7813 1862.0156,275.6875 1862.0156,273.9844 L1862.0156,272.8906 C1862.0156,271.1094 1863.2656,269.7969 1865,269.7969 C1865.5781,269.7969 1866.1875,269.9531 1866.6563,270.2031 C1867.1406,270.4844 1867.3125,270.7031 1867.4063,271.1094 C1867.4688,271.5156 1867.5,271.6406 1867.6406,271.7656 C1867.7813,271.9063 1868.0156,272.0156 1868.2344,272.0156 C1868.5,272.0156 1868.7656,271.875 1868.9375,271.6563 C1869.0469,271.5 1869.0781,271.3125 1869.0781,270.8906 L1869.0781,269.4688 C1869.0781,269.0313 1869.0625,268.9063 1868.9688,268.75 C1868.8125,268.4844 1868.5313,268.3438 1868.2344,268.3438 C1867.9375,268.3438 1867.7344,268.4375 1867.5156,268.75 L1867.3438,268.6719 Z "
              fill="#000000"/>
        <text fill="#000000" font-family="sans-serif" font-size="12" lengthAdjust="spacing" textLength="120" x="1879"
              y="277.1543">FichierNullException
        </text>
        <line style="stroke:#A80036;stroke-width:1.5;" x1="1851" x2="2001" y1="289" y2="289"/>
        <line style="stroke:#A80036;stroke-width:1.5;" x1="1851" x2="2001" y1="297" y2="297"/><!--MD5=[81afc58c2925e39d9b1f158fa1583b4e]
class twisk.exceptions.URLIncorrectException-->
        <rect codeLine="23" fill="#FEFECE" filter="url(#f9bkimxmdl17g)" height="48"
              id="twisk.exceptions.URLIncorrectException" style="stroke:#A80036;stroke-width:1.5;" width="167"
              x="2037.5" y="257"/>
        <ellipse cx="2052.5" cy="273" fill="#ADD1B2" rx="11" ry="11" style="stroke:#A80036;stroke-width:1.0;"/>
        <path d="M2054.8438,268.6719 C2053.9063,268.2344 2053.3125,268.0938 2052.4375,268.0938 C2049.8125,268.0938 2047.8125,270.1719 2047.8125,272.8906 L2047.8125,274.0156 C2047.8125,276.5938 2049.9219,278.4844 2052.8125,278.4844 C2054.0313,278.4844 2055.1875,278.1875 2055.9375,277.6406 C2056.5156,277.2344 2056.8438,276.7813 2056.8438,276.3906 C2056.8438,275.9375 2056.4531,275.5469 2055.9844,275.5469 C2055.7656,275.5469 2055.5625,275.625 2055.375,275.8125 C2054.9219,276.2969 2054.9219,276.2969 2054.7344,276.3906 C2054.3125,276.6563 2053.625,276.7813 2052.8594,276.7813 C2050.8125,276.7813 2049.5156,275.6875 2049.5156,273.9844 L2049.5156,272.8906 C2049.5156,271.1094 2050.7656,269.7969 2052.5,269.7969 C2053.0781,269.7969 2053.6875,269.9531 2054.1563,270.2031 C2054.6406,270.4844 2054.8125,270.7031 2054.9063,271.1094 C2054.9688,271.5156 2055,271.6406 2055.1406,271.7656 C2055.2813,271.9063 2055.5156,272.0156 2055.7344,272.0156 C2056,272.0156 2056.2656,271.875 2056.4375,271.6563 C2056.5469,271.5 2056.5781,271.3125 2056.5781,270.8906 L2056.5781,269.4688 C2056.5781,269.0313 2056.5625,268.9063 2056.4688,268.75 C2056.3125,268.4844 2056.0313,268.3438 2055.7344,268.3438 C2055.4375,268.3438 2055.2344,268.4375 2055.0156,268.75 L2054.8438,268.6719 Z "
              fill="#000000"/>
        <text fill="#000000" font-family="sans-serif" font-size="12" lengthAdjust="spacing" textLength="135" x="2066.5"
              y="277.1543">URLIncorrectException
        </text>
        <line style="stroke:#A80036;stroke-width:1.5;" x1="2038.5" x2="2203.5" y1="289" y2="289"/>
        <line style="stroke:#A80036;stroke-width:1.5;" x1="2038.5" x2="2203.5" y1="297" y2="297"/><!--MD5=[084145306d49ebb59fcac049bab3c6a4]
class twisk.exceptions.MondeNullException-->
        <rect codeLine="25" fill="#FEFECE" filter="url(#f9bkimxmdl17g)" height="48"
              id="twisk.exceptions.MondeNullException" style="stroke:#A80036;stroke-width:1.5;" width="153" x="2239.5"
              y="257"/>
        <ellipse cx="2254.5" cy="273" fill="#ADD1B2" rx="11" ry="11" style="stroke:#A80036;stroke-width:1.0;"/>
        <path d="M2256.8438,268.6719 C2255.9063,268.2344 2255.3125,268.0938 2254.4375,268.0938 C2251.8125,268.0938 2249.8125,270.1719 2249.8125,272.8906 L2249.8125,274.0156 C2249.8125,276.5938 2251.9219,278.4844 2254.8125,278.4844 C2256.0313,278.4844 2257.1875,278.1875 2257.9375,277.6406 C2258.5156,277.2344 2258.8438,276.7813 2258.8438,276.3906 C2258.8438,275.9375 2258.4531,275.5469 2257.9844,275.5469 C2257.7656,275.5469 2257.5625,275.625 2257.375,275.8125 C2256.9219,276.2969 2256.9219,276.2969 2256.7344,276.3906 C2256.3125,276.6563 2255.625,276.7813 2254.8594,276.7813 C2252.8125,276.7813 2251.5156,275.6875 2251.5156,273.9844 L2251.5156,272.8906 C2251.5156,271.1094 2252.7656,269.7969 2254.5,269.7969 C2255.0781,269.7969 2255.6875,269.9531 2256.1563,270.2031 C2256.6406,270.4844 2256.8125,270.7031 2256.9063,271.1094 C2256.9688,271.5156 2257,271.6406 2257.1406,271.7656 C2257.2813,271.9063 2257.5156,272.0156 2257.7344,272.0156 C2258,272.0156 2258.2656,271.875 2258.4375,271.6563 C2258.5469,271.5 2258.5781,271.3125 2258.5781,270.8906 L2258.5781,269.4688 C2258.5781,269.0313 2258.5625,268.9063 2258.4688,268.75 C2258.3125,268.4844 2258.0313,268.3438 2257.7344,268.3438 C2257.4375,268.3438 2257.2344,268.4375 2257.0156,268.75 L2256.8438,268.6719 Z "
              fill="#000000"/>
        <text fill="#000000" font-family="sans-serif" font-size="12" lengthAdjust="spacing" textLength="121" x="2268.5"
              y="277.1543">MondeNullException
        </text>
        <line style="stroke:#A80036;stroke-width:1.5;" x1="2240.5" x2="2391.5" y1="289" y2="289"/>
        <line style="stroke:#A80036;stroke-width:1.5;" x1="2240.5" x2="2391.5" y1="297" y2="297"/><!--MD5=[f259eb16770d7f1733b37c372c2b4d2e]
class twisk.exceptions.MondeException-->
        <rect codeLine="27" fill="#FEFECE" filter="url(#f9bkimxmdl17g)" height="48" id="twisk.exceptions.MondeException"
              style="stroke:#A80036;stroke-width:1.5;" width="132" x="2428" y="257"/>
        <ellipse cx="2443" cy="273" fill="#ADD1B2" rx="11" ry="11" style="stroke:#A80036;stroke-width:1.0;"/>
        <path d="M2445.3438,268.6719 C2444.4063,268.2344 2443.8125,268.0938 2442.9375,268.0938 C2440.3125,268.0938 2438.3125,270.1719 2438.3125,272.8906 L2438.3125,274.0156 C2438.3125,276.5938 2440.4219,278.4844 2443.3125,278.4844 C2444.5313,278.4844 2445.6875,278.1875 2446.4375,277.6406 C2447.0156,277.2344 2447.3438,276.7813 2447.3438,276.3906 C2447.3438,275.9375 2446.9531,275.5469 2446.4844,275.5469 C2446.2656,275.5469 2446.0625,275.625 2445.875,275.8125 C2445.4219,276.2969 2445.4219,276.2969 2445.2344,276.3906 C2444.8125,276.6563 2444.125,276.7813 2443.3594,276.7813 C2441.3125,276.7813 2440.0156,275.6875 2440.0156,273.9844 L2440.0156,272.8906 C2440.0156,271.1094 2441.2656,269.7969 2443,269.7969 C2443.5781,269.7969 2444.1875,269.9531 2444.6563,270.2031 C2445.1406,270.4844 2445.3125,270.7031 2445.4063,271.1094 C2445.4688,271.5156 2445.5,271.6406 2445.6406,271.7656 C2445.7813,271.9063 2446.0156,272.0156 2446.2344,272.0156 C2446.5,272.0156 2446.7656,271.875 2446.9375,271.6563 C2447.0469,271.5 2447.0781,271.3125 2447.0781,270.8906 L2447.0781,269.4688 C2447.0781,269.0313 2447.0625,268.9063 2446.9688,268.75 C2446.8125,268.4844 2446.5313,268.3438 2446.2344,268.3438 C2445.9375,268.3438 2445.7344,268.4375 2445.5156,268.75 L2445.3438,268.6719 Z "
              fill="#000000"/>
        <text fill="#000000" font-family="sans-serif" font-size="12" lengthAdjust="spacing" textLength="100" x="2457"
              y="277.1543">MondeException
        </text>
        <line style="stroke:#A80036;stroke-width:1.5;" x1="2429" x2="2559" y1="289" y2="289"/>
        <line style="stroke:#A80036;stroke-width:1.5;" x1="2429" x2="2559" y1="297" y2="297"/><!--MD5=[3bac8099adf8a78d814e1d188ce1b4dd]
class twisk.exceptions.Exception-->
        <rect fill="#FEFECE" filter="url(#f9bkimxmdl17g)" height="48" id="twisk.exceptions.Exception"
              style="stroke:#A80036;stroke-width:1.5;" width="91" x="1401.5" y="41"/>
        <ellipse cx="1416.5" cy="57" fill="#ADD1B2" rx="11" ry="11" style="stroke:#A80036;stroke-width:1.0;"/>
        <path d="M1418.8438,52.6719 C1417.9063,52.2344 1417.3125,52.0938 1416.4375,52.0938 C1413.8125,52.0938 1411.8125,54.1719 1411.8125,56.8906 L1411.8125,58.0156 C1411.8125,60.5938 1413.9219,62.4844 1416.8125,62.4844 C1418.0313,62.4844 1419.1875,62.1875 1419.9375,61.6406 C1420.5156,61.2344 1420.8438,60.7813 1420.8438,60.3906 C1420.8438,59.9375 1420.4531,59.5469 1419.9844,59.5469 C1419.7656,59.5469 1419.5625,59.625 1419.375,59.8125 C1418.9219,60.2969 1418.9219,60.2969 1418.7344,60.3906 C1418.3125,60.6563 1417.625,60.7813 1416.8594,60.7813 C1414.8125,60.7813 1413.5156,59.6875 1413.5156,57.9844 L1413.5156,56.8906 C1413.5156,55.1094 1414.7656,53.7969 1416.5,53.7969 C1417.0781,53.7969 1417.6875,53.9531 1418.1563,54.2031 C1418.6406,54.4844 1418.8125,54.7031 1418.9063,55.1094 C1418.9688,55.5156 1419,55.6406 1419.1406,55.7656 C1419.2813,55.9063 1419.5156,56.0156 1419.7344,56.0156 C1420,56.0156 1420.2656,55.875 1420.4375,55.6563 C1420.5469,55.5 1420.5781,55.3125 1420.5781,54.8906 L1420.5781,53.4688 C1420.5781,53.0313 1420.5625,52.9063 1420.4688,52.75 C1420.3125,52.4844 1420.0313,52.3438 1419.7344,52.3438 C1419.4375,52.3438 1419.2344,52.4375 1419.0156,52.75 L1418.8438,52.6719 Z "
              fill="#000000"/>
        <text fill="#000000" font-family="sans-serif" font-size="12" lengthAdjust="spacing" textLength="59" x="1430.5"
              y="61.1543">Exception
        </text>
        <line style="stroke:#A80036;stroke-width:1.5;" x1="1402.5" x2="1491.5" y1="73" y2="73"/>
        <line style="stroke:#A80036;stroke-width:1.5;" x1="1402.5" x2="1491.5" y1="81" y2="81"/><!--MD5=[4cfa878d76c7a864c7802007530d02dc]
reverse link twisk.exceptions.Exception to twisk.exceptions.TwiskException-->
        <path codeLine="31" d="M1411.74,103.753 C1397.74,118.744 1382.08,135.514 1369.78,148.678 " fill="none"
              id="twisk.exceptions.Exception-backto-twisk.exceptions.TwiskException"
              style="stroke:#A80036;stroke-width:1.0;"/>
        <polygon fill="none" points="1406.75,98.839,1425.52,89,1416.98,108.395,1406.75,98.839"
                 style="stroke:#A80036;stroke-width:1.0;"/><!--MD5=[b07101b362c5a9562a96382928b6741d]
reverse link twisk.exceptions.TwiskException to twisk.exceptions.PasUnGuichetException-->
        <path codeLine="32"
              d="M1265.34,176.02 C1078.49,181.472 609.692,200.144 222,257 C216.145,257.8586 210.129,258.862 204.084,259.9604 "
              fill="none" id="twisk.exceptions.TwiskException-backto-twisk.exceptions.PasUnGuichetException"
              style="stroke:#A80036;stroke-width:1.0;"/>
        <polygon fill="none" points="1265.21,169.02,1285.4,175.454,1265.61,183.015,1265.21,169.02"
                 style="stroke:#A80036;stroke-width:1.0;"/><!--MD5=[89d8622c44463a2d67ff860e98cdf86e]
reverse link twisk.exceptions.TwiskException to twisk.exceptions.GuichetToGuichetException-->
        <path codeLine="33"
              d="M1265.24,178.809 C1106.92,188.641 750.438,213.838 453,257 C447.209,257.8403 441.27,258.7785 435.288,259.7825 "
              fill="none" id="twisk.exceptions.TwiskException-backto-twisk.exceptions.GuichetToGuichetException"
              style="stroke:#A80036;stroke-width:1.0;"/>
        <polygon fill="none" points="1264.96,171.813,1285.35,177.577,1265.81,185.787,1264.96,171.813"
                 style="stroke:#A80036;stroke-width:1.0;"/><!--MD5=[e3bd0fc71a72ce8708642120c0d501a2]
reverse link twisk.exceptions.TwiskException to twisk.exceptions.ChargementSauvegardeException-->
        <path codeLine="34"
              d="M1265.14,184.101 C1145.64,198.879 918.071,227.822 725,257 C719.317,257.8588 713.505,258.7587 707.637,259.6845 "
              fill="none" id="twisk.exceptions.TwiskException-backto-twisk.exceptions.ChargementSauvegardeException"
              style="stroke:#A80036;stroke-width:1.0;"/>
        <polygon fill="none" points="1264.41,177.138,1285.11,181.638,1266.12,191.033,1264.41,177.138"
                 style="stroke:#A80036;stroke-width:1.0;"/><!--MD5=[5c80cc38ea34d8514843d2368aeef7cb]
reverse link twisk.exceptions.Exception to twisk.exceptions.UncorrectSettingsException-->
        <path codeLine="35" d="M1482.26,103.753 C1496.26,118.744 1511.92,135.514 1524.22,148.678 " fill="none"
              id="twisk.exceptions.Exception-backto-twisk.exceptions.UncorrectSettingsException"
              style="stroke:#A80036;stroke-width:1.0;"/>
        <polygon fill="none" points="1477.02,108.395,1468.48,89,1487.25,98.839,1477.02,108.395"
                 style="stroke:#A80036;stroke-width:1.0;"/><!--MD5=[7b0c1b449235c5921a38b0886e0e3162]
reverse link twisk.exceptions.TwiskException to twisk.exceptions.CreateLoopException-->
        <path codeLine="36"
              d="M1265.53,189.16 C1179.59,205.173 1041.09,231.574 922,257 C916.047,258.2711 909.9,259.6173 903.72,260.9953 "
              fill="none" id="twisk.exceptions.TwiskException-backto-twisk.exceptions.CreateLoopException"
              style="stroke:#A80036;stroke-width:1.0;"/>
        <polygon fill="none" points="1264.48,182.237,1285.42,185.467,1267.03,196.002,1264.48,182.237"
                 style="stroke:#A80036;stroke-width:1.0;"/><!--MD5=[d41dc432744f72172c170bc48e943157]
reverse link twisk.exceptions.TwiskException to twisk.exceptions.SameActivityException-->
        <path codeLine="37" d="M1266.15,200.695 C1213,218.031 1144.43,240.3965 1093.66,256.9547 " fill="none"
              id="twisk.exceptions.TwiskException-backto-twisk.exceptions.SameActivityException"
              style="stroke:#A80036;stroke-width:1.0;"/>
        <polygon fill="none" points="1264.15,193.985,1285.34,194.438,1268.49,207.294,1264.15,193.985"
                 style="stroke:#A80036;stroke-width:1.0;"/><!--MD5=[5ec93c850a9a29e216b5ea7c0a2cf07b]
reverse link twisk.exceptions.TwiskException to twisk.exceptions.WrongDirectionException-->
        <path codeLine="38" d="M1308.76,210.809 C1292.53,226.036 1274.19,243.2366 1259.86,256.6784 " fill="none"
              id="twisk.exceptions.TwiskException-backto-twisk.exceptions.WrongDirectionException"
              style="stroke:#A80036;stroke-width:1.0;"/>
        <polygon fill="none" points="1304.1,205.578,1323.48,197,1313.68,215.789,1304.1,205.578"
                 style="stroke:#A80036;stroke-width:1.0;"/><!--MD5=[286831ef56857ad2c097df3067529c27]
reverse link twisk.exceptions.TwiskException to twisk.exceptions.ArcAlreadyCreateException-->
        <path codeLine="39" d="M1387.24,210.809 C1403.47,226.036 1421.81,243.2366 1436.14,256.6784 " fill="none"
              id="twisk.exceptions.TwiskException-backto-twisk.exceptions.ArcAlreadyCreateException"
              style="stroke:#A80036;stroke-width:1.0;"/>
        <polygon fill="none" points="1382.32,215.789,1372.52,197,1391.9,205.578,1382.32,215.789"
                 style="stroke:#A80036;stroke-width:1.0;"/><!--MD5=[99bd43272c4b903f4f4ecbed8dbf01f9]
reverse link twisk.exceptions.TwiskException to twisk.exceptions.CreateArcWithEndPdcException-->
        <path codeLine="40" d="M1429.9,198.317 C1489.31,215.958 1569.16,239.6665 1627.52,256.996 " fill="none"
              id="twisk.exceptions.TwiskException-backto-twisk.exceptions.CreateArcWithEndPdcException"
              style="stroke:#A80036;stroke-width:1.0;"/>
        <polygon fill="none" points="1427.77,204.988,1410.59,192.585,1431.76,191.567,1427.77,204.988"
                 style="stroke:#A80036;stroke-width:1.0;"/><!--MD5=[edb8c434a8176ae30639ee0e7fe06a00]
reverse link twisk.exceptions.TwiskException to twisk.exceptions.FichierNullException-->
        <path codeLine="41"
              d="M1430.17,196.81 C1609.92,234.348 1661,223.039 1833,257 C1838.47,258.0793 1844.09,259.27 1849.75,260.5244 "
              fill="none" id="twisk.exceptions.TwiskException-backto-twisk.exceptions.FichierNullException"
              style="stroke:#A80036;stroke-width:1.0;"/>
        <polygon fill="none" points="1428.69,203.652,1410.59,192.637,1431.61,189.96,1428.69,203.652"
                 style="stroke:#A80036;stroke-width:1.0;"/><!--MD5=[58926d517defd1c01ec4082f514e5e38]
reverse link twisk.exceptions.TwiskException to twisk.exceptions.URLIncorrectException-->
        <path codeLine="42"
              d="M1430.51,196.707 C1691.91,245.0497 1765.82,215.318 2020,257 C2025.68,257.9313 2031.52,258.9891 2037.38,260.1273 "
              fill="none" id="twisk.exceptions.TwiskException-backto-twisk.exceptions.URLIncorrectException"
              style="stroke:#A80036;stroke-width:1.0;"/>
        <polygon fill="none" points="1428.88,203.523,1410.53,192.929,1431.48,189.767,1428.88,203.523"
                 style="stroke:#A80036;stroke-width:1.0;"/><!--MD5=[d10abb09bdcf996e27f7a84b7905cc8e]
reverse link twisk.exceptions.TwiskException to twisk.exceptions.MondeNullException-->
        <path codeLine="43"
              d="M1430.37,196.585 C1780.58,256.8536 1879.33,202.493 2222,257 C2227.64,257.8973 2233.44,258.962 2239.26,260.1338 "
              fill="none" id="twisk.exceptions.TwiskException-backto-twisk.exceptions.MondeNullException"
              style="stroke:#A80036;stroke-width:1.0;"/>
        <polygon fill="none" points="1428.99,203.45,1410.5,193.091,1431.41,189.661,1428.99,203.45"
                 style="stroke:#A80036;stroke-width:1.0;"/><!--MD5=[134552f3a83739c2cafec03413f88546]
reverse link twisk.exceptions.TwiskException to twisk.exceptions.MondeException-->
        <path codeLine="44"
              d="M1430.76,196.627 C1863.23,267.9265 1985.48,186.672 2410,257 C2415.82,257.9638 2421.81,259.1677 2427.79,260.5162 "
              fill="none" id="twisk.exceptions.TwiskException-backto-twisk.exceptions.MondeException"
              style="stroke:#A80036;stroke-width:1.0;"/>
        <polygon fill="none" points="1429.49,203.512,1410.93,193.288,1431.82,189.706,1429.49,203.512"
                 style="stroke:#A80036;stroke-width:1.0;"/><!--MD5=[a5ff379817d67da2cb98084060b198b0]
@startuml
abstract class twisk.exceptions.TwiskException {
}
class twisk.exceptions.PasUnGuichetException {
}
class twisk.exceptions.GuichetToGuichetException {
}
class twisk.exceptions.ChargementSauvegardeException {
}
class twisk.exceptions.UncorrectSettingsException {
}
class twisk.exceptions.CreateLoopException {
}
class twisk.exceptions.SameActivityException {
}
class twisk.exceptions.WrongDirectionException {
}
class twisk.exceptions.ArcAlreadyCreateException {
}
class twisk.exceptions.CreateArcWithEndPdcException {
}
class twisk.exceptions.FichierNullException {
}
class twisk.exceptions.URLIncorrectException {
}
class twisk.exceptions.MondeNullException {
}
class twisk.exceptions.MondeException {
}


twisk.exceptions.Exception <|- - twisk.exceptions.TwiskException
twisk.exceptions.TwiskException <|- - twisk.exceptions.PasUnGuichetException
twisk.exceptions.TwiskException <|- - twisk.exceptions.GuichetToGuichetException
twisk.exceptions.TwiskException <|- - twisk.exceptions.ChargementSauvegardeException
twisk.exceptions.Exception <|- - twisk.exceptions.UncorrectSettingsException
twisk.exceptions.TwiskException <|- - twisk.exceptions.CreateLoopException
twisk.exceptions.TwiskException <|- - twisk.exceptions.SameActivityException
twisk.exceptions.TwiskException <|- - twisk.exceptions.WrongDirectionException
twisk.exceptions.TwiskException <|- - twisk.exceptions.ArcAlreadyCreateException
twisk.exceptions.TwiskException <|- - twisk.exceptions.CreateArcWithEndPdcException
twisk.exceptions.TwiskException <|- - twisk.exceptions.FichierNullException
twisk.exceptions.TwiskException <|- - twisk.exceptions.URLIncorrectException
twisk.exceptions.TwiskException <|- - twisk.exceptions.MondeNullException
twisk.exceptions.TwiskException <|- - twisk.exceptions.MondeException
@enduml

PlantUML version 1.2021.7(Sun May 23 12:40:07 UTC 2021)
(GPL source distribution)
Java Runtime: Java(TM) SE Runtime Environment
JVM: Java HotSpot(TM) 64-Bit Server VM
Default Encoding: UTF-8
Language: en
Country: US
-->
    </g>
</svg>